<svg xmlns="http://www.w3.org/2000/svg" viewBox="0 0 2048 1638" preserveAspectRatio="xMidYMid meet">
  <path d="M1776 55 L1765 48 L1751 49 L1655 101 L1405 259 L1315 328 L1303 329 L1292 317 L1250 209 L1240 198 L1230 197 L1199 213 L1177 239 L1146 333 L1087 278 L1034 251 L975 243 L1057 292 L1090 334 L1086 337 L1002 278 L945 250 L883 233 L817 230 L763 239 L638 281 L558 280 L579 296 L615 310 L703 313 L645 362 L590 387 L547 395 L498 392 L453 375 L413 343 L403 344 L397 365 L427 438 L461 477 L505 508 L484 514 L448 505 L401 485 L352 451 L342 454 L340 466 L351 493 L395 551 L349 579 L323 603 L299 641 L267 726 L242 752 L205 766 L201 775 L233 790 L287 794 L329 784 L385 755 L402 754 L331 810 L249 915 L217 935 L192 942 L189 951 L227 969 L389 981 L447 1001 L503 1049 L675 1274 L839 1422 L910 1467 L979 1496 L1044 1509 L1116 1504 L1116 1492 L1079 1409 L1053 1326 L1042 1262 L1040 1192 L1047 1135 L1059 1098 L1087 1051 L1129 1006 L1146 1004 L1187 1031 L1238 1051 L1392 1079 L1458 1099 L1516 1133 L1567 1188 L1597 1200 L1636 1195 L1703 1158 L1745 1119 L1770 1077 L1778 1027 L1763 987 L1589 794 L1515 698 L1489 655 L1494 638 L1515 629 L1539 608 L1540 586 L1475 549 L1406 478 L1403 468 L1412 453 L1773 83 L1779 71 Z" fill="#000"/>
</svg>
